<?xml version="1.0" standalone="no"?>
<!DOCTYPE svg PUBLIC "-//W3C//DTD SVG 20010904//EN"
 "http://www.w3.org/TR/2001/REC-SVG-20010904/DTD/svg10.dtd">
<svg version="1.0" xmlns="http://www.w3.org/2000/svg"
 width="320.000000pt" height="320.000000pt" viewBox="0 0 320.000000 320.000000"
 preserveAspectRatio="xMidYMid meet">

<g transform="translate(0.000000,320.000000) scale(0.100000,-0.100000)"
fill="#000000" stroke="none">
<path d="M717 3019 c-194 -26 -352 -131 -442 -294 -83 -150 -87 -219 -83
-1165 5 -861 3 -842 73 -989 46 -97 161 -213 255 -258 144 -69 131 -68 1070
-68 782 0 851 1 923 18 242 57 410 236 452 482 20 118 31 1090 17 1490 -11
312 -24 384 -83 491 -46 83 -159 192 -240 231 -140 69 -104 67 -1034 69 -462
1 -870 -2 -908 -7z m565 -1154 l308 -629 151 310 c83 170 173 354 199 409 81
170 262 540 266 544 12 13 26 -29 53 -164 16 -83 87 -438 156 -790 110 -561
141 -717 161 -813 l5 -23 -153 3 -152 3 -32 165 c-109 558 -134 690 -140 733
-4 26 -10 49 -14 52 -3 2 -15 -15 -25 -38 -20 -44 -83 -178 -194 -412 -37 -77
-112 -236 -166 -352 -67 -144 -105 -213 -116 -213 -10 0 -96 164 -268 513
l-253 512 -35 -175 c-35 -182 -48 -249 -108 -565 -20 -104 -38 -198 -41 -207
-5 -16 -21 -18 -145 -18 -104 0 -139 3 -139 12 0 7 63 332 140 723 78 390 154
778 170 860 40 200 39 197 53 192 7 -2 150 -286 319 -632z"/>
</g>
</svg>
